####
#
# OBJ File Generated by Meshlab
#
####
# Object body_link.obj
#
# Vertices: 148
# Faces: 292
#
####
vn -2.917193 -3.102210 -0.349535
v -0.010000 0.042000 -0.115000
vn 2.917193 -3.102210 -0.349536
v 0.010000 0.042000 -0.115000
vn -1.570798 -1.570796 -4.712389
v -0.010000 0.042000 -0.090000
vn 1.570796 -1.570796 -4.712389
v 0.010000 0.042000 -0.090000
vn 1.570796 1.570796 -4.712389
v 0.010000 0.078000 -0.090000
vn 2.917193 3.102210 -0.349535
v 0.010000 0.078000 -0.115000
vn -1.570797 1.570796 -4.712389
v -0.010000 0.078000 -0.090000
vn -2.917194 3.102210 -0.349535
v -0.010000 0.078000 -0.115000
vn 3.665191 -1.517274 2.627994
v 0.010000 0.055000 -0.106340
vn 3.665193 0.000000 3.034545
v 0.010000 0.060000 -0.105000
vn 3.665191 1.517274 2.627993
v 0.010000 0.065000 -0.106340
vn 3.665191 2.627993 1.517273
v 0.010000 0.068660 -0.110000
vn 3.665193 3.034545 -0.000001
v 0.010000 0.070000 -0.115000
vn 2.692793 2.759511 -1.328911
v 0.010000 0.076217 -0.122810
vn 3.665191 2.627993 -1.517274
v 0.010000 0.068660 -0.120000
vn 2.692794 1.909641 -2.394614
v 0.010000 0.071223 -0.129073
vn 3.665191 1.517274 -2.627994
v 0.010000 0.065000 -0.123660
vn 2.692793 0.681543 -2.986035
v 0.010000 0.064005 -0.132549
vn 3.665192 -0.000000 -3.034545
v 0.010000 0.060000 -0.125000
vn 2.692793 -0.681544 -2.986035
v 0.010000 0.055995 -0.132549
vn 2.692795 -1.909642 -2.394614
v 0.010000 0.048777 -0.129073
vn 3.665191 -1.517274 -2.627993
v 0.010000 0.055000 -0.123660
vn 2.692794 -2.759511 -1.328912
v 0.010000 0.043783 -0.122810
vn 3.665191 -2.627993 -1.517273
v 0.010000 0.051340 -0.120000
vn 3.665191 -3.034546 -0.000001
v 0.010000 0.050000 -0.115000
vn 3.665192 -2.627994 1.517272
v 0.010000 0.051340 -0.110000
vn -3.665193 3.034545 -0.000001
v -0.010000 0.070000 -0.115000
vn -3.665191 2.627993 -1.517274
v -0.010000 0.068660 -0.120000
vn -2.692793 2.759511 -1.328911
v -0.010000 0.076217 -0.122810
vn -3.665191 1.517274 -2.627993
v -0.010000 0.065000 -0.123660
vn -2.692794 1.909641 -2.394614
v -0.010000 0.071223 -0.129073
vn -3.665192 0.000000 -3.034545
v -0.010000 0.060000 -0.125000
vn -3.665193 -0.000000 3.034545
v -0.010000 0.060000 -0.105000
vn -3.665191 1.517274 2.627994
v -0.010000 0.065000 -0.106340
vn -3.665191 2.627993 1.517273
v -0.010000 0.068660 -0.110000
vn -3.665191 -1.517274 2.627993
v -0.010000 0.055000 -0.106340
vn -3.665192 -2.627994 1.517272
v -0.010000 0.051340 -0.110000
vn -3.665191 -3.034546 -0.000001
v -0.010000 0.050000 -0.115000
vn -2.692794 -2.759511 -1.328912
v -0.010000 0.043783 -0.122810
vn -3.665191 -2.627994 -1.517273
v -0.010000 0.051340 -0.120000
vn -2.692795 -1.909642 -2.394614
v -0.010000 0.048777 -0.129073
vn -3.665191 -1.517274 -2.627994
v -0.010000 0.055000 -0.123660
vn -2.692793 -0.681544 -2.986035
v -0.010000 0.055995 -0.132549
vn -2.692793 0.681543 -2.986035
v -0.010000 0.064005 -0.132549
vn 1.570797 1.570796 -4.712389
v 0.010000 -0.042000 -0.090000
vn 1.570796 1.570796 -1.570795
v 0.090000 0.160000 -0.090000
vn 1.570797 -1.570796 -4.712389
v 0.010000 -0.078000 -0.090000
vn 1.570796 -1.570796 -1.570797
v 0.090000 -0.160000 -0.090000
vn -1.570796 -1.570796 -4.712389
v -0.010000 -0.078000 -0.090000
vn -1.570796 -1.570796 -1.570795
v -0.090000 -0.160000 -0.090000
vn -1.570796 1.570796 -4.712389
v -0.010000 -0.042000 -0.090000
vn -1.570796 1.570796 -1.570797
v -0.090000 0.160000 -0.090000
vn 1.570796 1.570796 1.570796
v 0.090000 0.160000 0.090000
vn -1.570796 1.570796 1.570796
v -0.090000 0.160000 0.090000
vn 1.570796 -1.570796 1.570796
v 0.090000 -0.160000 0.090000
vn -1.570796 -1.570796 1.570796
v -0.090000 -0.160000 0.090000
vn -2.617994 1.517274 2.627993
v -0.020000 0.065000 -0.106340
vn -2.617994 2.627993 1.517273
v -0.020000 0.068660 -0.110000
vn -6.283184 0.000000 0.000000
v -0.020000 0.060000 -0.115000
vn -2.617993 3.034545 -0.000001
v -0.020000 0.070000 -0.115000
vn -2.617995 2.627993 -1.517274
v -0.020000 0.068660 -0.120000
vn -2.617993 -2.627994 1.517272
v -0.020000 0.051340 -0.110000
vn -2.617994 -1.517274 2.627994
v -0.020000 0.055000 -0.106340
vn -2.617993 0.000000 3.034545
v -0.020000 0.060000 -0.105000
vn -2.617994 -1.517274 -2.627993
v -0.020000 0.055000 -0.123660
vn -2.617994 -2.627993 -1.517273
v -0.020000 0.051340 -0.120000
vn -2.617994 -3.034546 -0.000001
v -0.020000 0.050000 -0.115000
vn -2.617994 1.517274 -2.627994
v -0.020000 0.065000 -0.123660
vn -2.617993 -0.000000 -3.034545
v -0.020000 0.060000 -0.125000
vn 2.617993 -2.627994 1.517272
v 0.020000 0.051340 -0.110000
vn 2.617994 -1.517274 2.627993
v 0.020000 0.055000 -0.106340
vn 2.617993 -0.000000 3.034545
v 0.020000 0.060000 -0.105000
vn 2.617994 1.517274 2.627994
v 0.020000 0.065000 -0.106340
vn 2.617994 2.627993 1.517273
v 0.020000 0.068660 -0.110000
vn 2.617993 3.034545 -0.000001
v 0.020000 0.070000 -0.115000
vn 2.617995 2.627993 -1.517274
v 0.020000 0.068660 -0.120000
vn 2.617994 1.517274 -2.627993
v 0.020000 0.065000 -0.123660
vn 2.617993 0.000000 -3.034545
v 0.020000 0.060000 -0.125000
vn 2.617994 -1.517274 -2.627994
v 0.020000 0.055000 -0.123660
vn 2.617994 -2.627994 -1.517273
v 0.020000 0.051340 -0.120000
vn 2.617994 -3.034546 -0.000001
v 0.020000 0.050000 -0.115000
vn 6.283185 0.000000 0.000000
v 0.020000 0.060000 -0.115000
vn -2.917193 -3.102210 -0.349535
v -0.010000 -0.078000 -0.115000
vn 2.917194 -3.102210 -0.349535
v 0.010000 -0.078000 -0.115000
vn 2.917193 3.102210 -0.349535
v 0.010000 -0.042000 -0.115000
vn -2.917193 3.102209 -0.349536
v -0.010000 -0.042000 -0.115000
vn 3.665192 2.627994 1.517272
v 0.010000 -0.051340 -0.110000
vn 3.665191 3.034546 -0.000001
v 0.010000 -0.050000 -0.115000
vn 2.692794 2.759511 -1.328912
v 0.010000 -0.043783 -0.122810
vn 3.665191 2.627994 -1.517273
v 0.010000 -0.051340 -0.120000
vn 2.692795 1.909642 -2.394614
v 0.010000 -0.048777 -0.129073
vn 3.665191 1.517274 -2.627994
v 0.010000 -0.055000 -0.123660
vn 2.692793 0.681544 -2.986035
v 0.010000 -0.055995 -0.132549
vn 3.665192 -0.000000 -3.034545
v 0.010000 -0.060000 -0.125000
vn 3.665191 -2.627993 1.517273
v 0.010000 -0.068660 -0.110000
vn 3.665193 -3.034545 -0.000001
v 0.010000 -0.070000 -0.115000
vn 3.665191 -2.627993 -1.517274
v 0.010000 -0.068660 -0.120000
vn 2.692793 -2.759511 -1.328911
v 0.010000 -0.076217 -0.122810
vn 3.665191 -1.517274 -2.627993
v 0.010000 -0.065000 -0.123660
vn 2.692794 -1.909641 -2.394614
v 0.010000 -0.071223 -0.129073
vn 2.692793 -0.681543 -2.986035
v 0.010000 -0.064005 -0.132549
vn 3.665191 -1.517274 2.627994
v 0.010000 -0.065000 -0.106340
vn 3.665193 0.000000 3.034545
v 0.010000 -0.060000 -0.105000
vn 3.665191 1.517274 2.627993
v 0.010000 -0.055000 -0.106340
vn -3.665193 -0.000000 3.034545
v -0.010000 -0.060000 -0.105000
vn -3.665191 1.517274 2.627994
v -0.010000 -0.055000 -0.106340
vn -3.665192 2.627994 1.517272
v -0.010000 -0.051340 -0.110000
vn -3.665191 3.034546 -0.000001
v -0.010000 -0.050000 -0.115000
vn -3.665191 2.627994 -1.517273
v -0.010000 -0.051340 -0.120000
vn -2.692794 2.759511 -1.328912
v -0.010000 -0.043783 -0.122810
vn -3.665191 1.517274 -2.627993
v -0.010000 -0.055000 -0.123660
vn -2.692795 1.909642 -2.394614
v -0.010000 -0.048777 -0.129073
vn -3.665192 0.000000 -3.034545
v -0.010000 -0.060000 -0.125000
vn -3.665191 -1.517274 2.627993
v -0.010000 -0.065000 -0.106340
vn -3.665191 -2.627993 1.517273
v -0.010000 -0.068660 -0.110000
vn -3.665193 -3.034545 -0.000001
v -0.010000 -0.070000 -0.115000
vn -2.692793 -2.759511 -1.328911
v -0.010000 -0.076217 -0.122810
vn -3.665191 -2.627993 -1.517274
v -0.010000 -0.068660 -0.120000
vn -2.692794 -1.909641 -2.394614
v -0.010000 -0.071223 -0.129073
vn -3.665191 -1.517274 -2.627994
v -0.010000 -0.065000 -0.123660
vn -2.692793 -0.681543 -2.986035
v -0.010000 -0.064005 -0.132549
vn -2.692793 0.681544 -2.986035
v -0.010000 -0.055995 -0.132549
vn -2.617994 1.517274 2.627993
v -0.020000 -0.055000 -0.106340
vn -2.617993 2.627994 1.517272
v -0.020000 -0.051340 -0.110000
vn -6.283184 0.000000 0.000000
v -0.020000 -0.060000 -0.115000
vn -2.617994 3.034546 -0.000001
v -0.020000 -0.050000 -0.115000
vn -2.617994 2.627994 -1.517273
v -0.020000 -0.051340 -0.120000
vn -2.617994 -2.627993 1.517273
v -0.020000 -0.068660 -0.110000
vn -2.617994 -1.517274 2.627994
v -0.020000 -0.065000 -0.106340
vn -2.617993 0.000000 3.034545
v -0.020000 -0.060000 -0.105000
vn -2.617994 -1.517274 -2.627993
v -0.020000 -0.065000 -0.123660
vn -2.617995 -2.627993 -1.517274
v -0.020000 -0.068660 -0.120000
vn -2.617993 -3.034545 -0.000001
v -0.020000 -0.070000 -0.115000
vn -2.617994 1.517274 -2.627994
v -0.020000 -0.055000 -0.123660
vn -2.617993 -0.000000 -3.034545
v -0.020000 -0.060000 -0.125000
vn 2.617994 -2.627993 1.517273
v 0.020000 -0.068660 -0.110000
vn 2.617994 -1.517274 2.627993
v 0.020000 -0.065000 -0.106340
vn 2.617993 -0.000000 3.034545
v 0.020000 -0.060000 -0.105000
vn 2.617994 1.517274 2.627994
v 0.020000 -0.055000 -0.106340
vn 2.617993 2.627994 1.517272
v 0.020000 -0.051340 -0.110000
vn 2.617994 3.034546 -0.000001
v 0.020000 -0.050000 -0.115000
vn 2.617994 2.627994 -1.517273
v 0.020000 -0.051340 -0.120000
vn 2.617994 1.517274 -2.627993
v 0.020000 -0.055000 -0.123660
vn 2.617993 0.000000 -3.034545
v 0.020000 -0.060000 -0.125000
vn 2.617994 -1.517274 -2.627994
v 0.020000 -0.065000 -0.123660
vn 2.617995 -2.627993 -1.517274
v 0.020000 -0.068660 -0.120000
vn 2.617993 -3.034545 -0.000001
v 0.020000 -0.070000 -0.115000
vn 6.283185 0.000000 0.000000
v 0.020000 -0.060000 -0.115000
# 148 vertices, 0 vertices normals

f 1//1 2//2 3//3
f 3//3 2//2 4//4
f 5//5 6//6 7//7
f 7//7 6//6 8//8
f 9//9 10//10 4//4
f 4//4 10//10 5//5
f 10//10 11//11 5//5
f 5//5 11//11 12//12
f 5//5 12//12 6//6
f 6//6 12//12 13//13
f 6//6 13//13 14//14
f 14//14 13//13 15//15
f 14//14 15//15 16//16
f 16//16 15//15 17//17
f 16//16 17//17 18//18
f 18//18 17//17 19//19
f 18//18 19//19 20//20
f 20//20 19//19 21//21
f 21//21 19//19 22//22
f 21//21 22//22 23//23
f 23//23 22//22 24//24
f 23//23 24//24 2//2
f 2//2 24//24 25//25
f 2//2 25//25 4//4
f 4//4 25//25 26//26
f 4//4 26//26 9//9
f 7//7 8//8 27//27
f 27//27 8//8 28//28
f 28//28 8//8 29//29
f 28//28 29//29 30//30
f 30//30 29//29 31//31
f 30//30 31//31 32//32
f 33//33 3//3 34//34
f 34//34 3//3 7//7
f 34//34 7//7 35//35
f 35//35 7//7 27//27
f 33//33 36//36 3//3
f 3//3 36//36 37//37
f 3//3 37//37 1//1
f 1//1 37//37 38//38
f 1//1 38//38 39//39
f 39//39 38//38 40//40
f 39//39 40//40 41//41
f 41//41 40//40 42//42
f 41//41 42//42 43//43
f 43//43 42//42 32//32
f 43//43 32//32 44//44
f 44//44 32//32 31//31
f 2//2 1//1 39//39
f 2//2 39//39 23//23
f 23//23 39//39 41//41
f 23//23 41//41 21//21
f 21//21 41//41 43//43
f 21//21 43//43 20//20
f 20//20 43//43 44//44
f 20//20 44//44 18//18
f 18//18 44//44 31//31
f 18//18 31//31 16//16
f 16//16 31//31 29//29
f 16//16 29//29 14//14
f 14//14 29//29 8//8
f 14//14 8//8 6//6
f 45//45 46//46 47//47
f 47//47 46//46 48//48
f 47//47 48//48 49//49
f 49//49 48//48 50//50
f 49//49 50//50 51//51
f 45//45 51//51 3//3
f 3//3 51//51 50//50
f 3//3 50//50 7//7
f 7//7 50//50 52//52
f 7//7 52//52 5//5
f 5//5 52//52 46//46
f 5//5 46//46 4//4
f 4//4 46//46 45//45
f 4//4 45//45 3//3
f 53//53 46//46 54//54
f 54//54 46//46 52//52
f 55//55 53//53 56//56
f 56//56 53//53 54//54
f 48//48 55//55 50//50
f 50//50 55//55 56//56
f 53//53 55//55 46//46
f 46//46 55//55 48//48
f 56//56 54//54 50//50
f 50//50 54//54 52//52
f 57//57 58//58 59//59
f 59//59 58//58 60//60
f 59//59 60//60 61//61
f 62//62 63//63 59//59
f 59//59 63//63 64//64
f 59//59 64//64 57//57
f 65//65 66//66 59//59
f 59//59 66//66 67//67
f 59//59 67//67 62//62
f 61//61 68//68 59//59
f 59//59 68//68 69//69
f 59//59 69//69 65//65
f 67//67 37//37 62//62
f 62//62 37//37 36//36
f 62//62 36//36 63//63
f 63//63 36//36 33//33
f 63//63 33//33 64//64
f 64//64 33//33 34//34
f 64//64 34//34 57//57
f 57//57 34//34 35//35
f 57//57 35//35 58//58
f 58//58 35//35 27//27
f 58//58 27//27 60//60
f 60//60 27//27 28//28
f 60//60 28//28 61//61
f 61//61 28//28 30//30
f 61//61 30//30 68//68
f 68//68 30//30 32//32
f 68//68 32//32 69//69
f 69//69 32//32 42//42
f 69//69 42//42 65//65
f 65//65 42//42 40//40
f 65//65 40//40 66//66
f 66//66 40//40 38//38
f 66//66 38//38 67//67
f 67//67 38//38 37//37
f 25//25 70//70 26//26
f 26//26 70//70 71//71
f 26//26 71//71 9//9
f 9//9 71//71 72//72
f 9//9 72//72 10//10
f 10//10 72//72 73//73
f 10//10 73//73 11//11
f 11//11 73//73 74//74
f 11//11 74//74 12//12
f 12//12 74//74 75//75
f 12//12 75//75 13//13
f 13//13 75//75 76//76
f 13//13 76//76 15//15
f 15//15 76//76 77//77
f 15//15 77//77 17//17
f 17//17 77//77 78//78
f 17//17 78//78 19//19
f 19//19 78//78 79//79
f 19//19 79//79 22//22
f 22//22 79//79 80//80
f 22//22 80//80 24//24
f 24//24 80//80 81//81
f 24//24 81//81 25//25
f 25//25 81//81 70//70
f 77//77 76//76 82//82
f 82//82 76//76 75//75
f 82//82 75//75 74//74
f 80//80 79//79 82//82
f 82//82 79//79 78//78
f 82//82 78//78 77//77
f 71//71 70//70 82//82
f 82//82 70//70 81//81
f 82//82 81//81 80//80
f 74//74 73//73 82//82
f 82//82 73//73 72//72
f 82//82 72//72 71//71
f 49//49 83//83 47//47
f 47//47 83//83 84//84
f 85//85 86//86 45//45
f 45//45 86//86 51//51
f 45//45 87//87 85//85
f 85//85 87//87 88//88
f 85//85 88//88 89//89
f 89//89 88//88 90//90
f 89//89 90//90 91//91
f 91//91 90//90 92//92
f 91//91 92//92 93//93
f 93//93 92//92 94//94
f 95//95 47//47 96//96
f 96//96 47//47 84//84
f 96//96 84//84 97//97
f 97//97 84//84 98//98
f 97//97 98//98 99//99
f 99//99 98//98 100//100
f 99//99 100//100 94//94
f 94//94 100//100 101//101
f 94//94 101//101 93//93
f 95//95 102//102 47//47
f 47//47 102//102 103//103
f 47//47 103//103 45//45
f 45//45 103//103 104//104
f 45//45 104//104 87//87
f 105//105 49//49 106//106
f 106//106 49//49 51//51
f 106//106 51//51 107//107
f 107//107 51//51 108//108
f 108//108 51//51 86//86
f 108//108 86//86 109//109
f 109//109 86//86 110//110
f 109//109 110//110 111//111
f 111//111 110//110 112//112
f 111//111 112//112 113//113
f 105//105 114//114 49//49
f 49//49 114//114 115//115
f 49//49 115//115 83//83
f 83//83 115//115 116//116
f 83//83 116//116 117//117
f 117//117 116//116 118//118
f 117//117 118//118 119//119
f 119//119 118//118 120//120
f 119//119 120//120 121//121
f 121//121 120//120 113//113
f 121//121 113//113 122//122
f 122//122 113//113 112//112
f 84//84 83//83 117//117
f 84//84 117//117 98//98
f 98//98 117//117 119//119
f 98//98 119//119 100//100
f 100//100 119//119 121//121
f 100//100 121//121 101//101
f 101//101 121//121 122//122
f 101//101 122//122 93//93
f 93//93 122//122 112//112
f 93//93 112//112 91//91
f 91//91 112//112 110//110
f 91//91 110//110 89//89
f 89//89 110//110 86//86
f 89//89 86//86 85//85
f 123//123 124//124 125//125
f 125//125 124//124 126//126
f 125//125 126//126 127//127
f 128//128 129//129 125//125
f 125//125 129//129 130//130
f 125//125 130//130 123//123
f 131//131 132//132 125//125
f 125//125 132//132 133//133
f 125//125 133//133 128//128
f 127//127 134//134 125//125
f 125//125 134//134 135//135
f 125//125 135//135 131//131
f 133//133 115//115 128//128
f 128//128 115//115 114//114
f 128//128 114//114 129//129
f 129//129 114//114 105//105
f 129//129 105//105 130//130
f 130//130 105//105 106//106
f 130//130 106//106 123//123
f 123//123 106//106 107//107
f 123//123 107//107 124//124
f 124//124 107//107 108//108
f 124//124 108//108 126//126
f 126//126 108//108 109//109
f 126//126 109//109 127//127
f 127//127 109//109 111//111
f 127//127 111//111 134//134
f 134//134 111//111 113//113
f 134//134 113//113 135//135
f 135//135 113//113 120//120
f 135//135 120//120 131//131
f 131//131 120//120 118//118
f 131//131 118//118 132//132
f 132//132 118//118 116//116
f 132//132 116//116 133//133
f 133//133 116//116 115//115
f 96//96 136//136 95//95
f 95//95 136//136 137//137
f 95//95 137//137 102//102
f 102//102 137//137 138//138
f 102//102 138//138 103//103
f 103//103 138//138 139//139
f 103//103 139//139 104//104
f 104//104 139//139 140//140
f 104//104 140//140 87//87
f 87//87 140//140 141//141
f 87//87 141//141 88//88
f 88//88 141//141 142//142
f 88//88 142//142 90//90
f 90//90 142//142 143//143
f 90//90 143//143 92//92
f 92//92 143//143 144//144
f 92//92 144//144 94//94
f 94//94 144//144 145//145
f 94//94 145//145 99//99
f 99//99 145//145 146//146
f 99//99 146//146 97//97
f 97//97 146//146 147//147
f 97//97 147//147 96//96
f 96//96 147//147 136//136
f 143//143 142//142 148//148
f 148//148 142//142 141//141
f 148//148 141//141 140//140
f 146//146 145//145 148//148
f 148//148 145//145 144//144
f 148//148 144//144 143//143
f 137//137 136//136 148//148
f 148//148 136//136 147//147
f 148//148 147//147 146//146
f 140//140 139//139 148//148
f 148//148 139//139 138//138
f 148//148 138//138 137//137
# 292 faces, 0 coords texture

# End of File
