####
#
# OBJ File Generated by Meshlab
#
####
# Object foreleg_link2.obj
#
# Vertices: 101
# Faces: 202
#
####
vn 2.984513 -0.245727 -3.122254
v 0.012000 -0.090000 -0.018000
vn 2.984513 0.245727 -3.122254
v 0.012000 0.090000 -0.018000
vn 3.590391 -2.394614 1.909642
v 0.012000 -0.082182 -0.006235
vn 3.590391 2.394613 1.909642
v 0.012000 -0.097818 -0.006235
vn 2.827434 -1.823848 -2.510310
v 0.012000 -0.100580 -0.014562
vn 3.590391 1.328910 2.759511
v 0.012000 -0.094339 -0.009010
vn 2.827433 -0.958854 -2.951047
v 0.012000 -0.095562 -0.017119
vn 3.590392 0.000001 3.062826
v 0.012000 -0.090000 -0.010000
vn 3.590391 -1.328910 2.759512
v 0.012000 -0.085661 -0.009010
vn 3.590392 2.986035 -0.681544
v 0.012000 -0.099749 0.002225
vn 2.827432 -3.102914 -0.000000
v 0.012000 -0.108000 0.000000
vn 3.590392 2.986035 0.681544
v 0.012000 -0.099749 -0.002225
vn 2.827434 -2.951047 -0.958854
v 0.012000 -0.107119 -0.005562
vn 2.827434 -2.510311 -1.823847
v 0.012000 -0.104562 -0.010580
vn 3.590391 1.328910 -2.759511
v 0.012000 -0.094339 0.009010
vn 3.590392 0.000001 -3.062826
v 0.012000 -0.090000 0.010000
vn 2.984513 -0.245727 3.122254
v 0.012000 -0.090000 0.018000
vn 3.590391 -1.328910 -2.759512
v 0.012000 -0.085661 0.009010
vn 2.984509 0.245727 3.122254
v 0.012000 0.090000 0.018000
vn 3.590392 -2.394613 -1.909642
v 0.012000 -0.082182 0.006235
vn 3.590392 -2.986035 -0.681544
v 0.012000 -0.080251 0.002225
vn 3.590392 -2.986035 0.681544
v 0.012000 -0.080251 -0.002225
vn 2.827433 -0.958854 2.951047
v 0.012000 -0.095562 0.017119
vn 2.827434 -1.823848 2.510310
v 0.012000 -0.100580 0.014562
vn 3.590391 2.394614 -1.909642
v 0.012000 -0.097818 0.006235
vn 2.827434 -2.510311 1.823847
v 0.012000 -0.104562 0.010580
vn 2.827434 -2.951047 0.958854
v 0.012000 -0.107119 0.005562
vn 2.827433 0.958854 -2.951047
v 0.012000 0.095562 -0.017119
vn 2.827434 1.823848 -2.510310
v 0.012000 0.100580 -0.014562
vn 2.827434 2.510311 -1.823847
v 0.012000 0.104562 -0.010580
vn 2.827435 2.951047 -0.958854
v 0.012000 0.107119 -0.005562
vn 2.827434 2.510311 1.823847
v 0.012000 0.104562 0.010580
vn 2.827434 2.951047 0.958854
v 0.012000 0.107119 0.005562
vn 2.827432 3.102914 0.000000
v 0.012000 0.108000 -0.000000
vn 2.827434 1.823848 2.510310
v 0.012000 0.100580 0.014562
vn 2.827433 0.958854 2.951047
v 0.012000 0.095562 0.017119
vn -2.984513 -0.245727 3.122254
v 0.000000 -0.090000 0.018000
vn -2.984513 0.245727 3.122254
v 0.000000 0.090000 0.018000
vn -3.590393 -2.394614 -1.909642
v 0.000000 -0.082182 0.006235
vn -3.590391 2.394613 -1.909642
v 0.000000 -0.097818 0.006235
vn -2.827434 -1.823848 2.510310
v 0.000000 -0.100580 0.014562
vn -3.590391 1.328910 -2.759511
v 0.000000 -0.094339 0.009010
vn -2.827433 -0.958854 2.951047
v 0.000000 -0.095562 0.017119
vn -3.590392 0.000001 -3.062826
v 0.000000 -0.090000 0.010000
vn -3.590391 -1.328910 -2.759512
v 0.000000 -0.085661 0.009010
vn -3.590392 2.986035 0.681544
v 0.000000 -0.099749 -0.002225
vn -2.827432 -3.102914 0.000000
v 0.000000 -0.108000 0.000000
vn -3.590392 2.986035 -0.681544
v 0.000000 -0.099749 0.002225
vn -2.827434 -2.951047 0.958854
v 0.000000 -0.107119 0.005562
vn -2.827434 -2.510311 1.823847
v 0.000000 -0.104562 0.010580
vn -3.590393 -2.394613 1.909642
v 0.000000 -0.082182 -0.006235
vn -2.984511 0.245727 -3.122254
v 0.000000 0.090000 -0.018000
vn -3.590391 -1.328910 2.759512
v 0.000000 -0.085661 -0.009010
vn -2.984513 -0.245727 -3.122254
v 0.000000 -0.090000 -0.018000
vn -3.590392 0.000001 3.062826
v 0.000000 -0.090000 -0.010000
vn -3.590391 1.328910 2.759511
v 0.000000 -0.094339 -0.009010
vn -2.827433 -0.958854 -2.951047
v 0.000000 -0.095562 -0.017119
vn -2.827434 -1.823848 -2.510310
v 0.000000 -0.100580 -0.014562
vn -3.590391 2.394614 1.909642
v 0.000000 -0.097818 -0.006235
vn -2.827434 -2.510311 -1.823847
v 0.000000 -0.104562 -0.010580
vn -2.827434 -2.951047 -0.958854
v 0.000000 -0.107119 -0.005562
vn -3.590391 1.328910 2.759511
v 0.000000 0.094339 0.009010
vn -3.590392 0.000001 3.062826
v 0.000000 0.090000 0.010000
vn -3.590391 -1.328910 2.759512
v 0.000000 0.085661 0.009010
vn -3.590391 -2.394614 1.909642
v 0.000000 0.082182 0.006235
vn -3.590394 -2.986035 0.681544
v 0.000000 0.080251 0.002225
vn -2.827433 0.958854 2.951047
v 0.000000 0.095562 0.017119
vn -2.827434 1.823848 2.510310
v 0.000000 0.100580 0.014562
vn -3.590391 2.394613 1.909642
v 0.000000 0.097818 0.006235
vn -2.827434 2.510311 1.823847
v 0.000000 0.104562 0.010580
vn -3.590392 2.986035 0.681544
v 0.000000 0.099749 0.002225
vn -3.590391 2.394614 -1.909642
v 0.000000 0.097818 -0.006235
vn -2.827434 1.823848 -2.510310
v 0.000000 0.100580 -0.014562
vn -3.590391 1.328910 -2.759511
v 0.000000 0.094339 -0.009010
vn -2.827433 0.958854 -2.951047
v 0.000000 0.095562 -0.017119
vn -3.590392 0.000001 -3.062826
v 0.000000 0.090000 -0.010000
vn -3.590391 -1.328910 -2.759512
v 0.000000 0.085661 -0.009010
vn -3.590391 -2.394613 -1.909642
v 0.000000 0.082182 -0.006235
vn -3.590394 -2.986035 -0.681544
v 0.000000 0.080251 -0.002225
vn -3.590393 -2.986035 0.681544
v 0.000000 -0.080251 -0.002225
vn -3.590392 -2.986035 -0.681544
v 0.000000 -0.080251 0.002225
vn -2.827434 2.951047 0.958854
v 0.000000 0.107119 0.005562
vn -2.827432 3.102914 0.000000
v 0.000000 0.108000 -0.000000
vn -3.590392 2.986035 -0.681544
v 0.000000 0.099749 -0.002225
vn -2.827434 2.951047 -0.958854
v 0.000000 0.107119 -0.005562
vn -2.827434 2.510311 -1.823847
v 0.000000 0.104562 -0.010580
vn -2.692794 1.328910 -2.759511
v -0.012000 0.094339 -0.009010
vn -2.692794 2.394613 -1.909642
v -0.012000 0.097818 -0.006235
vn -2.692793 2.986035 -0.681544
v -0.012000 0.099749 -0.002225
vn -2.692793 2.986035 0.681544
v -0.012000 0.099749 0.002225
vn -2.692794 2.394614 1.909642
v -0.012000 0.097818 0.006235
vn -2.692794 1.328910 2.759511
v -0.012000 0.094339 0.009010
vn -2.692794 0.000001 3.062826
v -0.012000 0.090000 0.010000
vn -2.692794 -1.328910 2.759512
v -0.012000 0.085661 0.009010
vn -2.692794 -2.394613 1.909642
v -0.012000 0.082182 0.006235
vn -2.692793 -2.986035 0.681544
v -0.012000 0.080251 0.002225
vn -2.692793 -2.986035 -0.681544
v -0.012000 0.080251 -0.002225
vn -2.692794 -2.394614 -1.909642
v -0.012000 0.082182 -0.006235
vn -2.692794 -1.328910 -2.759512
v -0.012000 0.085661 -0.009010
vn -2.692794 0.000001 -3.062826
v -0.012000 0.090000 -0.010000
vn -6.283185 0.000000 0.000000
v -0.012000 0.090000 -0.000000
# 101 vertices, 0 vertices normals

f 1//1 2//2 3//3
f 4//4 5//5 6//6
f 6//6 5//5 7//7
f 6//6 7//7 8//8
f 8//8 7//7 1//1
f 8//8 1//1 9//9
f 9//9 1//1 3//3
f 10//10 11//11 12//12
f 12//12 11//11 13//13
f 12//12 13//13 4//4
f 4//4 13//13 14//14
f 4//4 14//14 5//5
f 15//15 16//16 17//17
f 17//17 16//16 18//18
f 17//17 18//18 19//19
f 18//18 20//20 19//19
f 19//19 20//20 21//21
f 19//19 21//21 22//22
f 17//17 23//23 15//15
f 15//15 23//23 24//24
f 15//15 24//24 25//25
f 25//25 24//24 26//26
f 25//25 26//26 10//10
f 10//10 26//26 27//27
f 10//10 27//27 11//11
f 28//28 19//19 2//2
f 2//2 19//19 22//22
f 2//2 22//22 3//3
f 28//28 29//29 19//19
f 19//19 29//29 30//30
f 19//19 30//30 31//31
f 32//32 31//31 33//33
f 33//33 31//31 34//34
f 32//32 35//35 31//31
f 31//31 35//35 36//36
f 31//31 36//36 19//19
f 37//37 38//38 39//39
f 40//40 41//41 42//42
f 42//42 41//41 43//43
f 42//42 43//43 44//44
f 44//44 43//43 37//37
f 44//44 37//37 45//45
f 45//45 37//37 39//39
f 46//46 47//47 48//48
f 48//48 47//47 49//49
f 48//48 49//49 40//40
f 40//40 49//49 50//50
f 40//40 50//50 41//41
f 51//51 52//52 53//53
f 53//53 52//52 54//54
f 53//53 54//54 55//55
f 55//55 54//54 56//56
f 54//54 57//57 56//56
f 56//56 57//57 58//58
f 56//56 58//58 59//59
f 59//59 58//58 60//60
f 59//59 60//60 46//46
f 46//46 60//60 61//61
f 46//46 61//61 47//47
f 62//62 63//63 38//38
f 38//38 63//63 64//64
f 38//38 64//64 39//39
f 39//39 64//64 65//65
f 39//39 65//65 66//66
f 38//38 67//67 62//62
f 62//62 67//67 68//68
f 62//62 68//68 69//69
f 69//69 68//68 70//70
f 69//69 70//70 71//71
f 72//72 73//73 74//74
f 74//74 73//73 75//75
f 74//74 75//75 76//76
f 76//76 75//75 52//52
f 76//76 52//52 77//77
f 77//77 52//52 78//78
f 78//78 52//52 51//51
f 78//78 51//51 79//79
f 79//79 51//51 80//80
f 79//79 80//80 66//66
f 66//66 80//80 81//81
f 66//66 81//81 39//39
f 70//70 82//82 71//71
f 71//71 82//82 83//83
f 71//71 83//83 84//84
f 84//84 83//83 85//85
f 84//84 85//85 72//72
f 72//72 85//85 86//86
f 72//72 86//86 73//73
f 2//2 52//52 75//75
f 2//2 75//75 28//28
f 28//28 75//75 73//73
f 28//28 73//73 29//29
f 29//29 73//73 86//86
f 29//29 86//86 30//30
f 30//30 86//86 85//85
f 30//30 85//85 31//31
f 31//31 85//85 83//83
f 31//31 83//83 34//34
f 34//34 83//83 82//82
f 34//34 82//82 33//33
f 33//33 82//82 70//70
f 33//33 70//70 32//32
f 32//32 70//70 68//68
f 32//32 68//68 35//35
f 35//35 68//68 67//67
f 35//35 67//67 36//36
f 36//36 67//67 38//38
f 36//36 38//38 19//19
f 17//17 19//19 37//37
f 37//37 19//19 38//38
f 17//17 37//37 43//43
f 17//17 43//43 23//23
f 23//23 43//43 41//41
f 23//23 41//41 24//24
f 24//24 41//41 50//50
f 24//24 50//50 26//26
f 26//26 50//50 49//49
f 26//26 49//49 27//27
f 27//27 49//49 47//47
f 27//27 47//47 11//11
f 11//11 47//47 61//61
f 11//11 61//61 13//13
f 13//13 61//61 60//60
f 13//13 60//60 14//14
f 14//14 60//60 58//58
f 14//14 58//58 5//5
f 5//5 58//58 57//57
f 5//5 57//57 7//7
f 7//7 57//57 54//54
f 7//7 54//54 1//1
f 2//2 1//1 52//52
f 52//52 1//1 54//54
f 16//16 44//44 18//18
f 18//18 44//44 45//45
f 18//18 45//45 20//20
f 20//20 45//45 39//39
f 20//20 39//39 21//21
f 21//21 39//39 81//81
f 21//21 81//81 22//22
f 22//22 81//81 80//80
f 22//22 80//80 3//3
f 3//3 80//80 51//51
f 3//3 51//51 9//9
f 9//9 51//51 53//53
f 9//9 53//53 8//8
f 8//8 53//53 55//55
f 8//8 55//55 6//6
f 6//6 55//55 56//56
f 6//6 56//56 4//4
f 4//4 56//56 59//59
f 4//4 59//59 12//12
f 12//12 59//59 46//46
f 12//12 46//46 10//10
f 10//10 46//46 48//48
f 10//10 48//48 25//25
f 25//25 48//48 40//40
f 25//25 40//40 15//15
f 15//15 40//40 42//42
f 15//15 42//42 16//16
f 16//16 42//42 44//44
f 76//76 87//87 74//74
f 74//74 87//87 88//88
f 74//74 88//88 72//72
f 72//72 88//88 89//89
f 72//72 89//89 84//84
f 84//84 89//89 90//90
f 84//84 90//90 71//71
f 71//71 90//90 91//91
f 71//71 91//91 69//69
f 69//69 91//91 92//92
f 69//69 92//92 62//62
f 62//62 92//92 93//93
f 62//62 93//93 63//63
f 63//63 93//93 94//94
f 63//63 94//94 64//64
f 64//64 94//94 95//95
f 64//64 95//95 65//65
f 65//65 95//95 96//96
f 65//65 96//96 66//66
f 66//66 96//96 97//97
f 66//66 97//97 79//79
f 79//79 97//97 98//98
f 79//79 98//98 78//78
f 78//78 98//98 99//99
f 78//78 99//99 77//77
f 77//77 99//99 100//100
f 77//77 100//100 76//76
f 76//76 100//100 87//87
f 100//100 99//99 101//101
f 100//100 101//101 87//87
f 90//90 89//89 101//101
f 101//101 89//89 88//88
f 101//101 88//88 87//87
f 93//93 92//92 101//101
f 101//101 92//92 91//91
f 101//101 91//91 90//90
f 96//96 95//95 101//101
f 101//101 95//95 94//94
f 101//101 94//94 93//93
f 99//99 98//98 101//101
f 101//101 98//98 97//97
f 101//101 97//97 96//96
# 202 faces, 0 coords texture

# End of File
